# xmcd
#
# Track frame offsets:
#	150
#	16147
#	36258
#
# Disc length: 728 seconds
#
# Revision: 0
# Processed by: cddbd v1.5.1PL2 Copyright (c) Steve Scherf et al.
# Submitted via: dBpowerAMP V4.0
#
DISCID=1902d603
DTITLE=Captian Cozmo - The Final Countdown
DYEAR=1998
DGENRE=Dance
TTITLE0=The Final Countdown (Millennium Radio Edit)
TTITLE1=The Final Countdown (Computer Crashdown Mix)
TTITLE2=The Final Countdown (Rocketride Journey Mix)
EXTD=
EXTT0=
EXTT1=
EXTT2=
PLAYORDER=
